<svg height="50" viewBox="0 0 128 128" width="50" xmlns="http://www.w3.org/2000/svg"><g><g><path d="m35.824 26.337h85.176l-9.775 45.512h-65.626z" fill="#a9db1f"/><path d="m111.225 84.849h-62.834l-15.702-73.109a6 6 0 0 0 -5.866-4.74h-19.823v6.709h19.25l15.7 73.11a6 6 0 0 0 5.866 4.74h63.407z" fill="#ffd92e"/><circle cx="51.149" cy="110.449" fill="#0a789b" r="10.551"/><circle cx="51.149" cy="110.449" fill="#e6f8fc" r="4.142"/><circle cx="105.675" cy="110.449" fill="#0a789b" r="10.551"/><circle cx="105.675" cy="110.449" fill="#e6f8fc" r="4.142"/></g><g><path d="m39.521 67.167-.944-4.4a1.75 1.75 0 0 0 -3.422.734l.945 4.399a1.749 1.749 0 0 0 1.709 1.383 1.721 1.721 0 0 0 .369-.039 1.749 1.749 0 0 0 1.343-2.077z"/><path d="m51.148 98.147a12.3 12.3 0 1 0 12.3 12.3 12.315 12.315 0 0 0 -12.3-12.3zm0 21.1a8.8 8.8 0 1 1 8.8-8.8 8.811 8.811 0 0 1 -8.8 8.803z"/><path d="m51.148 104.557a5.892 5.892 0 1 0 5.893 5.891 5.9 5.9 0 0 0 -5.893-5.891zm0 8.284a2.392 2.392 0 1 1 2.393-2.393 2.395 2.395 0 0 1 -2.393 2.393z"/><path d="m105.676 98.147a12.3 12.3 0 1 0 12.3 12.3 12.316 12.316 0 0 0 -12.3-12.3zm0 21.1a8.8 8.8 0 1 1 8.8-8.8 8.811 8.811 0 0 1 -8.8 8.803z"/><path d="m105.676 104.557a5.892 5.892 0 1 0 5.891 5.891 5.9 5.9 0 0 0 -5.891-5.891zm0 8.284a2.392 2.392 0 1 1 2.391-2.393 2.4 2.4 0 0 1 -2.391 2.393z"/><path d="m122.711 26.7a1.75 1.75 0 0 0 -1.711-2.113h-11.932a1.75 1.75 0 0 0 0 3.5h9.766l-2.507 11.671h-16.3l1.421-13.235a1.749 1.749 0 0 0 -1.74-1.936h-62.469l-2.839-13.215a7.791 7.791 0 0 0 -7.577-6.122h-19.823a1.749 1.749 0 0 0 -1.75 1.75v6.709a1.749 1.749 0 0 0 1.75 1.75h17.836l8.292 38.609a1.75 1.75 0 1 0 3.422-.734l-8.589-39.992a1.75 1.75 0 0 0 -1.711-1.383h-17.5v-3.209h18.073a4.273 4.273 0 0 1 4.155 3.357l15.7 73.11a1.749 1.749 0 0 0 1.714 1.383h61.083v3.209h-61.657a4.272 4.272 0 0 1 -4.155-3.358l-2.2-10.256a1.75 1.75 0 0 0 -3.422.735l2.2 10.255a7.791 7.791 0 0 0 7.577 6.124h63.407a1.751 1.751 0 0 0 1.75-1.75v-6.709a1.75 1.75 0 0 0 -1.75-1.75h-61.419l-2.041-9.5h63.46a1.749 1.749 0 0 0 1.71-1.383zm-7.135 16.554-2.507 11.671h-14.669l1.253-11.671zm-35.414 26.846v-11.671h14.338l-1.254 11.671zm-16.584 0-1.253-11.671h14.337v11.671zm-22.329-26.842h15.926l1.253 11.671h-14.673zm19.447 0h15.966v11.671h-14.713zm-.376-3.5-1.254-11.671h17.6v11.671zm19.842 15.171v-11.671h15.967l-1.254 11.671zm16.338-15.171h-16.338v-11.671h17.6zm-40.954-11.671 1.254 11.671h-16.3l-2.51-11.671zm-11.039 30.342h14.293l1.258 11.671h-13.044zm65.303 11.671h-13.044l1.254-11.671h14.3z"/></g></g></svg>